<?xml version="1.0" encoding="UTF-8"?>
<svg version="1.1" xmlns="http://www.w3.org/2000/svg" width="512" height="512">
<path d="M0 0 C11.54774559 7.94431264 17.31774437 17.40122303 23.6953125 29.5703125 C27.39527214 34.90643519 34.57129652 36.74973435 40.625 38.25 C54.65640487 41.83206528 66.70831653 50.34058166 74.25 62.8125 C80.29694915 74.30001899 81.57724939 84.16687753 81.640625 96.96875 C81.80621837 104.2548584 82.66345379 109.86681054 87.68359375 115.38964844 C89.261901 116.88963516 90.89073099 118.2927918 92.5625 119.6875 C99.23431016 125.53338318 104.38912567 131.76138765 108.25 139.8125 C108.91 139.8125 109.57 139.8125 110.25 139.8125 C111.36188136 138.06354067 112.38806454 136.2598878 113.375 134.4375 C116.81386533 128.36765246 120.75383705 123.12614713 125.25 117.8125 C125.72953125 117.19890625 126.2090625 116.5853125 126.703125 115.953125 C131.13577108 110.39957991 136.68327751 106.18069327 142.25 101.8125 C139.44113393 98.95036233 136.62771647 96.25618306 133.5 93.75 C120.22855638 82.15626717 112.28669001 65.5630411 110.96875 48.08203125 C110.62604064 34.07378597 113.70447255 19.99216823 123.4609375 9.41015625 C131.63321079 2.11220914 140.78856702 -0.72947734 151.59765625 -0.4296875 C163.23806695 0.63320714 175.11855863 5.47153733 184.25 12.8125 C184.77207031 12.17183594 185.29414063 11.53117187 185.83203125 10.87109375 C191.31355696 4.42958105 196.81454599 -0.16229181 204.25 -4.1875 C204.87003906 -4.5484375 205.49007813 -4.909375 206.12890625 -5.28125 C213.60915196 -8.89586538 224.31874716 -8.30795154 232.29296875 -6.49609375 C234.77719111 -5.57558345 236.96518553 -4.52485012 239.25 -3.1875 C239.94222656 -2.78660156 240.63445312 -2.38570313 241.34765625 -1.97265625 C250.62810791 4.19643011 256.48353426 14.54525925 260.25 24.8125 C260.25 25.4725 260.25 26.1325 260.25 26.8125 C260.81203125 26.5959375 261.3740625 26.379375 261.953125 26.15625 C273.90003242 22.19837883 288.92934187 21.75394913 300.70703125 26.48828125 C310.48347029 31.57923798 317.30627747 38.82838546 320.64355469 49.34619141 C321.64628544 53.42412459 321.73881769 57.37929375 321.6875 61.5625 C321.67614014 62.87238892 321.67614014 62.87238892 321.66455078 64.20874023 C321.47811972 71.58501438 320.19796749 78.01091985 317.25 84.8125 C316.84910156 85.740625 316.44820313 86.66875 316.03515625 87.625 C307.748618 104.53434182 292.43001143 115.1284018 275.25 121.8125 C273.25451599 122.49256472 271.25546934 123.16247142 269.25 123.8125 C269.75789063 124.6375 270.26578125 125.4625 270.7890625 126.3125 C287.10815759 153.43140588 290.70785939 183.7463868 283.31518555 214.35424805 C280.46811755 225.54397329 276.67544565 236.16281151 272.25 246.8125 C273.26835937 246.81660889 274.28671875 246.82071777 275.3359375 246.82495117 C279.14584672 246.84686713 282.95474134 246.90128296 286.76416016 246.96508789 C288.40696423 246.98816008 290.04991395 247.00263813 291.69287109 247.00805664 C308.60181385 247.07478896 308.60181385 247.07478896 315.25 252.8125 C321.45544272 259.50784609 321.82926405 265.41074193 321.625 274.1796875 C318.96534163 326.89791598 293.17919259 380.97281063 257.5625 419.31640625 C255.51342081 421.52816572 253.52800519 423.77672276 251.5625 426.0625 C245.93779593 432.51513949 239.806749 438.31731988 233.25 443.8125 C232.74500977 444.23660156 232.24001953 444.66070312 231.71972656 445.09765625 C216.40341262 457.87756724 199.9491344 468.62470744 182.25 477.8125 C181.57710938 478.1626416 180.90421875 478.5127832 180.2109375 478.87353516 C148.9658078 494.88666413 112.68403309 504.8308036 77.45703125 505.015625 C76.55649017 505.02263931 75.6559491 505.02965363 74.7281189 505.03688049 C71.83952774 505.05427902 68.95114163 505.0607324 66.0625 505.0625 C65.07512848 505.06317474 64.08775696 505.06384949 63.07046509 505.06454468 C48.57911736 505.04879657 34.50979749 504.59591075 20.25 501.8125 C19.35297363 501.65152832 18.45594727 501.49055664 17.53173828 501.32470703 C-5.86600631 497.09090691 -28.4545788 489.35469275 -49.75 478.8125 C-50.76126953 478.31218262 -50.76126953 478.31218262 -51.79296875 477.80175781 C-66.77833839 470.2866398 -80.70238194 461.32167097 -93.75 450.8125 C-94.67167969 450.08417969 -95.59335938 449.35585938 -96.54296875 448.60546875 C-147.77758527 407.57341656 -182.94223974 346.55253441 -190.53027344 281.04443359 C-192.4180824 261.86848964 -192.4180824 261.86848964 -187.1796875 255.25390625 C-183.64460019 251.68984282 -179.83252987 248.16970362 -174.67449951 247.57199097 C-173.93725647 247.57643219 -173.20001343 247.58087341 -172.44042969 247.58544922 C-171.1795755 247.58567581 -171.1795755 247.58567581 -169.89324951 247.58590698 C-168.99519592 247.59622955 -168.09714233 247.60655212 -167.171875 247.6171875 C-166.2453009 247.6200174 -165.31872681 247.62284729 -164.36407471 247.62576294 C-161.40925091 247.63694389 -158.45473195 247.66204473 -155.5 247.6875 C-153.49479605 247.69753249 -151.48958734 247.70665787 -149.484375 247.71484375 C-144.57279949 247.73687642 -139.66145141 247.77139205 -134.75 247.8125 C-137.90277454 238.74166821 -141.10025764 233.83789119 -149.9375 229.5 C-164.20895321 221.98616838 -174.00019748 211.71930765 -179.09375 196.25 C-182.0294262 185.34605981 -181.96350353 173.55428464 -178.6875 162.75 C-176.29030499 154.77864243 -176.29030499 154.77864243 -177.75 146.8125 C-179.62321704 143.46109809 -181.64392929 140.25022931 -183.7421875 137.03515625 C-191.69266812 124.27417082 -192.76799825 108.72122196 -190.06640625 94.1171875 C-185.67363881 80.15511338 -177.43365175 70.38468816 -165.65234375 62.12109375 C-159.48716722 57.21716464 -156.9721845 52.52686902 -154.875 45.1875 C-149.30408212 27.35297593 -138.71199732 13.33840725 -122.09765625 4.3828125 C-106.31262405 -3.271909 -88.45761121 -4.81893796 -71.57421875 0.15625 C-64.33526692 1.83833009 -59.16999876 0.15853822 -52.5625 -2.625 C-50.98649665 -3.27153265 -49.40969947 -3.9161344 -47.83203125 -4.55859375 C-46.79912964 -4.9906311 -46.79912964 -4.9906311 -45.74536133 -5.43139648 C-31.30606379 -10.90288853 -12.87440412 -7.62533577 0 0 Z " fill="#9BE0EB" transform="translate(190.75,7.1875)"/>
<path d="M0 0 C0.69222656 0.40089844 1.38445312 0.80179687 2.09765625 1.21484375 C11.37810791 7.38393011 17.23353426 17.73275925 21 28 C21 28.66 21 29.32 21 30 C21.56203125 29.7834375 22.1240625 29.566875 22.703125 29.34375 C34.65003242 25.38587883 49.67934187 24.94144913 61.45703125 29.67578125 C71.23347029 34.76673798 78.05627747 42.01588546 81.39355469 52.53369141 C82.39628544 56.61162459 82.48881769 60.56679375 82.4375 64.75 C82.42614014 66.05988892 82.42614014 66.05988892 82.41455078 67.39624023 C82.22811972 74.77251438 80.94796749 81.19841985 78 88 C77.59910156 88.928125 77.19820313 89.85625 76.78515625 90.8125 C68.498618 107.72184182 53.18001143 118.3159018 36 125 C34.00451599 125.68006472 32.00546934 126.34997142 30 127 C30.50789063 127.825 31.01578125 128.65 31.5390625 129.5 C47.8586648 156.61974876 51.45637384 186.9328007 44.06542969 217.54150391 C36.76232843 246.23767157 36.76232843 246.23767157 32 251 C30.32668611 251.09722372 28.64923365 251.12371535 26.9730978 251.12304783 C25.32943191 251.1260344 25.32943191 251.1260344 23.65256065 251.12908131 C21.82429327 251.12471205 21.82429327 251.12471205 19.95909119 251.12025452 C18.67600132 251.12110894 17.39291145 251.12196337 16.07094008 251.12284368 C12.49309411 251.12509106 8.91527779 251.12106407 5.3374356 251.11606562 C1.48533811 251.11176477 -2.36675759 251.11320728 -6.21885681 251.1139679 C-12.89832521 251.11449336 -19.57778388 251.11134419 -26.25724983 251.10573006 C-35.91474861 251.09761813 -45.57224267 251.09500015 -55.22974449 251.09374207 C-70.89673663 251.09155106 -86.56372357 251.08488966 -102.23071289 251.07543945 C-117.4536944 251.06626659 -132.67667449 251.05918514 -147.8996582 251.05493164 C-148.83731209 251.05466892 -149.77496598 251.05440619 -150.74103362 251.05413551 C-155.44476135 251.05283051 -160.14848909 251.05156679 -164.85221684 251.05032361 C-203.90148153 251.03994948 -242.95074042 251.02232985 -282 251 C-282.02476987 247.46282187 -282.03973233 243.92566631 -282.05297852 240.38842773 C-282.06008095 239.39120445 -282.06718338 238.39398117 -282.07450104 237.366539 C-282.09321547 230.70376974 -281.73560832 224.50925925 -279.9375 218.0625 C-279.60468018 216.77678101 -279.60468018 216.77678101 -279.26513672 215.46508789 C-277.08581604 207.49187263 -273.91911017 200.25542163 -270 193 C-269.443125 191.94425781 -268.88625 190.88851562 -268.3125 189.80078125 C-254.54934272 164.91877701 -231.05660977 147.1965612 -204 139 C-180.88533774 132.52089012 -157.40471981 133.72152172 -134.90625 142.01171875 C-132.03823617 143.16097418 -132.03823617 143.16097418 -129 143 C-127.34297631 140.64701536 -127.34297631 140.64701536 -125.8125 137.625 C-122.41036092 131.53129519 -118.49736403 126.31506659 -114 121 C-113.52046875 120.38640625 -113.0409375 119.7728125 -112.546875 119.140625 C-108.11422892 113.58707991 -102.56672249 109.36819327 -97 105 C-99.80886607 102.13786233 -102.62228353 99.44368306 -105.75 96.9375 C-119.02144362 85.34376717 -126.96330999 68.7505411 -128.28125 51.26953125 C-128.62395936 37.26128597 -125.54552745 23.17966823 -115.7890625 12.59765625 C-107.61678921 5.29970914 -98.46143298 2.45802266 -87.65234375 2.7578125 C-76.01193305 3.82070714 -64.13144137 8.65903733 -55 16 C-54.21689453 15.03900391 -54.21689453 15.03900391 -53.41796875 14.05859375 C-47.93644304 7.61708105 -42.43545401 3.02520819 -35 -1 C-34.37996094 -1.3609375 -33.75992188 -1.721875 -33.12109375 -2.09375 C-23.49997659 -6.74288044 -9.00576297 -5.2712631 0 0 Z " fill="#FEB357" transform="translate(430,4)"/>
<path d="M0 0 C11.54774559 7.94431264 17.31774437 17.40122303 23.6953125 29.5703125 C27.39527214 34.90643519 34.57129652 36.74973435 40.625 38.25 C54.65640487 41.83206528 66.70831653 50.34058166 74.25 62.8125 C80.29694915 74.30001899 81.57724939 84.16687753 81.640625 96.96875 C81.80621837 104.2548584 82.66345379 109.86681054 87.68359375 115.38964844 C89.26187536 116.8896108 90.89097848 118.29255598 92.5625 119.6875 C99.21884437 125.53557398 105.8960199 131.67313435 107.25 140.8125 C106.38761719 140.48636719 105.52523438 140.16023437 104.63671875 139.82421875 C77.84485511 130.23346714 48.48716622 129.42266454 22.33984375 141.6015625 C-5.68114361 155.0533606 -26.39626209 175.96616413 -37.00683594 205.59765625 C-41.69089793 219.55751511 -42.07307057 232.92005252 -42.75 247.8125 C-73.11 247.8125 -103.47 247.8125 -134.75 247.8125 C-136.07 244.5125 -137.39 241.2125 -138.75 237.8125 C-141.98916991 233.81306211 -145.35038772 231.75165195 -149.9375 229.5 C-164.20895321 221.98616838 -174.00019748 211.71930765 -179.09375 196.25 C-182.0294262 185.34605981 -181.96350353 173.55428464 -178.6875 162.75 C-176.29030499 154.77864243 -176.29030499 154.77864243 -177.75 146.8125 C-179.62321704 143.46109809 -181.64392929 140.25022931 -183.7421875 137.03515625 C-191.69266812 124.27417082 -192.76799825 108.72122196 -190.06640625 94.1171875 C-185.67363881 80.15511338 -177.43365175 70.38468816 -165.65234375 62.12109375 C-159.48716722 57.21716464 -156.9721845 52.52686902 -154.875 45.1875 C-149.30408212 27.35297593 -138.71199732 13.33840725 -122.09765625 4.3828125 C-106.31262405 -3.271909 -88.45761121 -4.81893796 -71.57421875 0.15625 C-64.33526692 1.83833009 -59.16999876 0.15853822 -52.5625 -2.625 C-50.98649665 -3.27153265 -49.40969947 -3.9161344 -47.83203125 -4.55859375 C-46.79912964 -4.9906311 -46.79912964 -4.9906311 -45.74536133 -5.43139648 C-31.30606379 -10.90288853 -12.87440412 -7.62533577 0 0 Z " fill="#8CE09F" transform="translate(190.75,7.1875)"/>
<path d="M0 0 C35.15195227 -0.11445923 70.30386682 -0.20255588 105.45596623 -0.25532665 C109.60654941 -0.26158014 113.75713222 -0.26805175 117.90771484 -0.2746582 C118.73401665 -0.27596976 119.56031846 -0.27728131 120.41165972 -0.2786326 C133.78878878 -0.30038563 147.16581034 -0.33980658 160.54287565 -0.38576398 C174.27029821 -0.43253151 187.9976645 -0.46029602 201.72516346 -0.47044247 C210.19494324 -0.47730104 218.66441915 -0.49895827 227.13410538 -0.53958233 C232.94311102 -0.56602439 238.75195971 -0.57399771 244.56102115 -0.56750689 C247.91212969 -0.56430608 251.26227993 -0.57192888 254.61336708 -0.59602737 C258.24999257 -0.6208981 261.88531717 -0.61492507 265.52197266 -0.60127258 C266.5764626 -0.61583679 267.63095255 -0.630401 268.71739674 -0.64540654 C275.40587186 -0.57751969 279.82681267 0.6643815 285 5 C291.20544272 11.69534609 291.57926405 17.59824193 291.375 26.3671875 C288.71534163 79.08541598 262.92919259 133.16031063 227.3125 171.50390625 C225.26342081 173.71566572 223.27800519 175.96422276 221.3125 178.25 C212.04007242 188.88729426 201.17829474 197.78484166 190.05273438 206.40527344 C188.67213682 207.47783091 187.29850423 208.5594081 185.93164062 209.64941406 C174.52763919 218.67265554 174.52763919 218.67265554 169.07421875 219.37890625 C166.19720209 218.89727235 163.72555222 218.03540531 161 217 C158.73042251 216.47372116 156.45945846 215.95340323 154.1875 215.4375 C121.85335309 206.52677258 92.36305002 188.79812418 68 166 C67.4642334 165.5035498 66.9284668 165.00709961 66.37646484 164.49560547 C64.6737236 162.90771045 62.99120682 161.30075153 61.3125 159.6875 C60.77061035 159.18379883 60.2287207 158.68009766 59.67041016 158.16113281 C58.17578125 156.69921875 58.17578125 156.69921875 56 154 C56.02862753 150.87387348 57.59682376 148.93233514 59.375 146.4375 C63.98133534 139.25428721 66.13657368 130.50094832 65 122 C64.0441277 117.83565709 62.78010369 114.84893637 59.875 111.6875 C51.91434917 107.01494408 44.02152421 106.49596269 34.9375 106.3125 C33.78572266 106.27833984 32.63394531 106.24417969 31.44726562 106.20898438 C28.6316079 106.12720179 25.81623429 106.05782625 23 106 C13.50866179 84.938805 6.25739657 64.74155788 2 42 C1.79866455 40.92999756 1.79866455 40.92999756 1.59326172 39.83837891 C-0.03643981 30.71342562 -0.08840526 21.728416 -0.04296875 12.48828125 C-0.03986694 11.28514282 -0.03676514 10.08200439 -0.03356934 8.84240723 C-0.02552207 5.89491331 -0.01424899 2.94746936 0 0 Z " fill="#B5E8F0" transform="translate(221,255)"/>
<path d="M0 0 C22.47048448 18.29590607 36.22989804 42.37938824 41 71 C41 78.26 41 85.52 41 93 C-30.28 93 -101.56 93 -175 93 C-175 67.45718298 -175 67.45718298 -172.9375 60.0625 C-172.60468018 58.77678101 -172.60468018 58.77678101 -172.26513672 57.46508789 C-170.08581604 49.49187263 -166.91911017 42.25542163 -163 35 C-162.443125 33.94425781 -161.88625 32.88851562 -161.3125 31.80078125 C-147.54934272 6.91877701 -124.05660977 -10.8034388 -97 -19 C-63.25213885 -28.45962775 -27.6976633 -21.62959425 0 0 Z " fill="#FE6E80" transform="translate(323,162)"/>
<path d="M0 0 C0.43099977 4.30464845 0.85811662 8.60965976 1.28173828 12.91503906 C1.42619545 14.37770831 1.57168795 15.84027571 1.71826172 17.30273438 C1.92952539 19.41249676 2.13698525 21.52260502 2.34375 23.6328125 C2.53227539 25.53377686 2.53227539 25.53377686 2.72460938 27.47314453 C3.24338411 34.11695646 3.24338411 34.11695646 3 37 C2.030625 37.639375 1.06125 38.27875 0.0625 38.9375 C-3.26765819 40.70945512 -3.26765819 40.70945512 -3.92041016 44.07714844 C-4.02326929 49.14690483 -2.53356726 52.34091976 -0.3359375 56.828125 C0.05314789 57.65777771 0.44223328 58.48743042 0.84310913 59.34222412 C2.08749015 61.98620395 3.35555043 64.61797895 4.625 67.25 C5.45604804 69.00313878 6.28549118 70.75703929 7.11328125 72.51171875 C8.69742708 75.86422999 10.28722165 79.21393333 11.88378906 82.56054688 C15.46534911 90.0723884 15.46534911 90.0723884 17.0859375 93.546875 C17.65513916 94.75875488 17.65513916 94.75875488 18.23583984 95.99511719 C19 98 19 98 19 101 C13.19177326 99.31903085 7.46479102 97.47658916 1.75 95.5 C-8.87206174 91.91455059 -20.69212459 88.14266781 -32 90 C-33.86352921 91.23779856 -33.86352921 91.23779856 -35 93 C-35.39787181 96.11666251 -35.36099335 98.19459047 -34.0703125 101.07421875 C-30.75683062 104.15638209 -26.87153338 104.22363841 -22.5 104.875 C-7.67235462 107.42684082 5.78890958 111.71590546 19.4375 118.0625 C20.33210938 118.47387207 21.22671875 118.88524414 22.1484375 119.30908203 C30.68673019 123.43844508 33.59421611 128.70472739 37.25 137.1875 C37.61351563 138.00669922 37.97703125 138.82589844 38.3515625 139.66992188 C41 145.71851504 41 145.71851504 41 148 C40.37996094 147.82984375 39.75992188 147.6596875 39.12109375 147.484375 C37.21417094 146.96253877 35.30654327 146.44327523 33.3984375 145.92578125 C31.04729775 145.28529835 28.69846841 144.63629578 26.3515625 143.98046875 C25.10117188 143.63628906 23.85078125 143.29210937 22.5625 142.9375 C20.83193359 142.45603516 20.83193359 142.45603516 19.06640625 141.96484375 C8.82367108 139.41466533 -1.0868458 138.68351322 -11.625 138.75 C-12.88957031 138.74226562 -14.15414062 138.73453125 -15.45703125 138.7265625 C-16.65972656 138.72914063 -17.86242187 138.73171875 -19.1015625 138.734375 C-20.18775879 138.73663086 -21.27395508 138.73888672 -22.39306641 138.74121094 C-25.16035869 138.73782707 -25.16035869 138.73782707 -27 141 C-27.68011479 146.12760109 -27.68011479 146.12760109 -25.76611328 150.60009766 C-23.49958244 152.3966539 -22.24915279 152.36855745 -19.37890625 152.37109375 C-18.45384277 152.38543457 -17.5287793 152.39977539 -16.57568359 152.41455078 C-15.58133301 152.42212402 -14.58698242 152.42969727 -13.5625 152.4375 C1.65259126 152.85386294 15.5472643 155.66988062 30 160.375 C31.23580811 160.7764624 31.23580811 160.7764624 32.49658203 161.18603516 C35.02929491 162.05492945 37.51003024 163.01557167 40 164 C41.00256836 164.350625 42.00513672 164.70125 43.03808594 165.0625 C51.0576724 168.32131606 54.37206349 172.70418579 57.67578125 180.3828125 C58.20106983 181.67165139 58.72580362 182.96071651 59.25 184.25 C59.81810492 185.55621955 60.38970037 186.86092674 60.96484375 188.1640625 C65 197.43098284 65 197.43098284 65 200 C63.73285156 199.71253906 62.46570313 199.42507812 61.16015625 199.12890625 C55.93687508 197.96897197 50.69326762 196.93841737 45.4375 195.9375 C44.54353516 195.76412109 43.64957031 195.59074219 42.72851562 195.41210938 C33.7282184 193.69369125 25.17367464 192.80561745 16 192.8125 C14.49228027 192.81262085 14.49228027 192.81262085 12.95410156 192.81274414 C3.70840453 192.88274264 -6.15993182 193.05331061 -15 196 C-15.05395478 197.62463842 -15.09277195 199.24978541 -15.125 200.875 C-15.14820312 201.77992188 -15.17140625 202.68484375 -15.1953125 203.6171875 C-15.24324836 206.18806994 -15.24324836 206.18806994 -13 208 C-11.08612346 208.27073653 -11.08612346 208.27073653 -8.88012695 208.17944336 C-8.02775955 208.16960922 -7.17539215 208.15977509 -6.29719543 208.14964294 C-4.90678291 208.12004234 -4.90678291 208.12004234 -3.48828125 208.08984375 C-1.51237265 208.06938363 0.46353895 208.04921119 2.43945312 208.02929688 C5.54382678 207.986211 8.6480054 207.93819532 11.75219727 207.88354492 C23.94534274 207.68417251 35.13880672 207.85375341 47 211 C48.40294312 211.3544519 48.40294312 211.3544519 49.83422852 211.71606445 C52.21407011 212.33755175 54.5760018 213.00002779 56.9375 213.6875 C57.72833984 213.91244141 58.51917969 214.13738281 59.33398438 214.36914062 C61.22414795 214.90755086 63.11232148 215.45294082 65 216 C64.67 219.3 64.34 222.6 64 226 C63.67 233.26 63.34 240.52 63 248 C32.64 248 2.28 248 -29 248 C-30.32 244.7 -31.64 241.4 -33 238 C-36.23916991 234.00056211 -39.60038772 231.93915195 -44.1875 229.6875 C-58.45895321 222.17366838 -68.25019748 211.90680765 -73.34375 196.4375 C-76.2794262 185.53355981 -76.21350353 173.74178464 -72.9375 162.9375 C-70.54030499 154.96614243 -70.54030499 154.96614243 -72 147 C-73.87321704 143.64859809 -75.89392929 140.43772931 -77.9921875 137.22265625 C-85.94266812 124.46167082 -87.01799825 108.90872196 -84.31640625 94.3046875 C-79.92363881 80.34261338 -71.68365175 70.57218816 -59.90234375 62.30859375 C-53.73716722 57.40466464 -51.2221845 52.71436902 -49.125 45.375 C-43.93075869 28.74635394 -34.32203562 14.86093626 -19 6 C-6.76322822 -0.18278995 -6.76322822 -0.18278995 0 0 Z " fill="#73DA8C" transform="translate(85,7)"/>
<path d="M0 0 C0.69222656 0.40089844 1.38445312 0.80179687 2.09765625 1.21484375 C11.37810791 7.38393011 17.23353426 17.73275925 21 28 C21 28.66 21 29.32 21 30 C21.56203125 29.7834375 22.1240625 29.566875 22.703125 29.34375 C34.65003242 25.38587883 49.67934187 24.94144913 61.45703125 29.67578125 C71.23347029 34.76673798 78.05627747 42.01588546 81.39355469 52.53369141 C82.39628544 56.61162459 82.48881769 60.56679375 82.4375 64.75 C82.42614014 66.05988892 82.42614014 66.05988892 82.41455078 67.39624023 C82.22811972 74.77251438 80.94796749 81.19841985 78 88 C77.59910156 88.928125 77.19820312 89.85625 76.78515625 90.8125 C68.66911445 107.37393023 53.13194974 118.87386936 36 125 C35.20851563 125.28746094 34.41703125 125.57492188 33.6015625 125.87109375 C31.04738112 126.50310109 29.54432176 126.69862638 27 126 C24.6858621 123.82962618 22.98393463 121.48805313 21.15234375 118.8984375 C9.87629832 103.71363585 -9.09466455 93.68508475 -27.484375 90.47265625 C-50.61864102 87.64262881 -72.25122757 90.43996831 -91.7109375 103.87109375 C-94 105 -94 105 -95.984375 104.4375 C-111.96442631 93.04087426 -123.85995837 77.91252362 -127.6015625 58.28125 C-129.52333372 42.45489875 -127.26789735 27.10202426 -117.3125 14.25 C-110.6281737 7.00007686 -102.25865212 3.65987747 -92.63671875 2.78515625 C-79.30050335 2.25340922 -65.35491693 7.67545894 -55 16 C-54.47792969 15.35933594 -53.95585937 14.71867187 -53.41796875 14.05859375 C-47.93644304 7.61708105 -42.43545401 3.02520819 -35 -1 C-34.37996094 -1.3609375 -33.75992188 -1.721875 -33.12109375 -2.09375 C-23.49997659 -6.74288044 -9.00576297 -5.2712631 0 0 Z " fill="#8CDF9E" transform="translate(430,4)"/>
<path d="M0 0 C3.375 1 3.375 1 5.375 2.5625 C7.68611524 8.1958434 5.31322215 13.32756345 3.125 18.625 C0.64870857 24.7581404 -0.93022288 30.92472105 -2.375 37.375 C-2.58543945 38.31424316 -2.79587891 39.25348633 -3.01269531 40.22119141 C-4.08193392 45.13076409 -5.01476218 50.00871516 -5.625 55 C-5.71845703 55.66902344 -5.81191406 56.33804688 -5.90820312 57.02734375 C-7.2810756 68.04983065 -5.99094003 75.14040593 0.875 84.0625 C2.61099481 86.21497989 4.36113902 88.34066102 6.18164062 90.42211914 C7.375 92 7.375 92 7.375 94 C8.035 94 8.695 94 9.375 94 C9.3234375 92.88367188 9.271875 91.76734375 9.21875 90.6171875 C9.22770262 85.5209063 10.43835481 80.98738684 11.875 76.125 C12.14199707 75.21097412 12.40899414 74.29694824 12.68408203 73.35522461 C23.28340932 38.39439378 23.28340932 38.39439378 34.375 31 C37.70966685 31.17864287 40.3610269 31.44395023 43.3125 33.0625 C45.03769608 36.2084458 44.7933562 39.52719801 44.375 43 C42.90625 46.10546875 42.90625 46.10546875 40.875 49.1875 C30.67934677 65.62468616 25.46826647 84.91822351 23.375 104 C23.24222656 104.97195312 23.10945313 105.94390625 22.97265625 106.9453125 C22.37083924 114.35716404 25.03359568 118.28106929 29.625 123.98046875 C30.2025 124.64691406 30.78 125.31335938 31.375 126 C30.59125 126.886875 29.8075 127.77375 29 128.6875 C15.6407431 144.32606139 5.02346089 160.71995005 0.375 181 C-5.69094186 180.38713791 -11.32206174 179.13839057 -17.1875 177.5 C-18.81272479 177.04819009 -20.4390176 176.60020268 -22.06640625 176.15625 C-22.77482666 175.95837891 -23.48324707 175.76050781 -24.21313477 175.55664062 C-30.87327857 174.01952879 -37.25824228 173.90243423 -44.046875 174.0078125 C-46.06119302 174.02531304 -48.07551624 174.04222281 -50.08984375 174.05859375 C-53.24575262 174.08966458 -56.4014003 174.12538484 -59.55712891 174.17138672 C-62.61624488 174.21359123 -65.67504837 174.23711455 -68.734375 174.2578125 C-70.15469025 174.28574387 -70.15469025 174.28574387 -71.60369873 174.3142395 C-72.48181213 174.31769379 -73.35992554 174.32114807 -74.26464844 174.32470703 C-75.42211578 174.33922409 -75.42211578 174.33922409 -76.60296631 174.35403442 C-79.21624954 173.89647913 -80.07524143 173.13143628 -81.625 171 C-82.39730987 164.04921121 -82.39730987 164.04921121 -80.0234375 160.82421875 C-69.52916725 152.84242037 -44.31683629 156.19855289 -32.05078125 157.7578125 C-21.23187915 159.33080453 -11.0256279 161.58824241 -0.625 165 C-7.27134283 144.63693132 -7.27134283 144.63693132 -21.59301758 130.28198242 C-24.79678815 129.15794932 -27.98399932 128.24288233 -31.30273438 127.52539062 C-33.54566026 127.01794987 -35.6345341 126.35557259 -37.796875 125.578125 C-52.21118747 120.4257374 -66.69254066 118.59811594 -81.95922852 118.55371094 C-88.9867468 118.43053766 -88.9867468 118.43053766 -92.265625 116.21875 C-94.52833356 112.5255935 -94.10118657 110.28567909 -93.625 106 C-92.45263672 104.28100586 -92.45263672 104.28100586 -90.625 103 C-88.04736328 102.59594727 -88.04736328 102.59594727 -84.9453125 102.56640625 C-83.79909424 102.55496582 -82.65287598 102.54352539 -81.47192383 102.53173828 C-80.24368896 102.54188965 -79.0154541 102.55204102 -77.75 102.5625 C-75.86027466 102.57385986 -75.86027466 102.57385986 -73.93237305 102.58544922 C-56.4767089 102.888718 -40.80587189 106.63792717 -24.625 113 C-26.08470498 109.41966806 -27.59952493 105.86525114 -29.125 102.3125 C-29.53492187 101.30509766 -29.94484375 100.29769531 -30.3671875 99.25976562 C-33.30405956 92.5183093 -35.95031803 89.09639248 -42.625 86 C-43.71039063 85.41476563 -44.79578125 84.82953125 -45.9140625 84.2265625 C-60.43924838 77.25311261 -75.88857063 71.77005073 -91.99145508 70.14941406 C-95.67590541 69.70459728 -97.38754054 69.23105182 -100.0859375 66.60546875 C-101.98600958 63.38884927 -102.25077788 61.67644502 -101.625 58 C-99.6315338 55.49223773 -98.4055604 54.17402658 -95.2421875 53.46875 C-78.71775835 53.65706258 -61.37974159 58.62262921 -46.625 66 C-47.43767158 64.18745606 -48.25069894 62.37507122 -49.06494141 60.56323242 C-49.82838951 58.86249319 -50.5897042 57.16079503 -51.34912109 55.45825195 C-53.70131718 50.20441205 -56.09824938 44.97520727 -58.55863953 39.77131653 C-59.95182467 36.82005882 -61.33138685 33.86251679 -62.71017456 30.9045105 C-63.40114452 29.43129432 -64.09832118 27.96097266 -64.80178833 26.49368286 C-65.80329941 24.40270913 -66.78241419 22.30247425 -67.7578125 20.19921875 C-68.06255997 19.57689362 -68.36730743 18.95456848 -68.68128967 18.31338501 C-70.71805149 13.84249969 -70.83252888 10.73942439 -69.625 6 C-67.06224531 3.14435905 -65.45162066 2.15828906 -61.6875 1.4375 C-55.94170005 2.49285101 -52.67372493 6.72019754 -49.3984375 11.265625 C-48.25721758 12.92131973 -47.12477774 14.58309179 -46 16.25 C-44.76993137 18.04063951 -43.53945516 19.83099909 -42.30859375 21.62109375 C-41.69483887 22.51940918 -41.08108398 23.41772461 -40.44873047 24.34326172 C-37.69139989 28.36003164 -34.87885265 32.33699684 -32.0625 36.3125 C-31.5866748 36.98635742 -31.11084961 37.66021484 -30.62060547 38.35449219 C-27.63645343 42.58000908 -24.6348451 46.79274817 -21.625 51 C-21.46644531 50.06542969 -21.30789062 49.13085938 -21.14453125 48.16796875 C-14.36177651 9.46930622 -14.36177651 9.46930622 -6.1953125 1.68359375 C-3.625 0 -3.625 0 0 0 Z " fill="#FDF0CE" transform="translate(150.625,42)"/>
<path d="M0 0 C1.66095703 -0.02416992 1.66095703 -0.02416992 3.35546875 -0.04882812 C13.85461266 -0.05499683 22.87549358 2.19970285 32.1875 7 C32.87013916 7.34885254 33.55277832 7.69770508 34.25610352 8.05712891 C49.79021704 16.24032721 61.9521635 29.73380418 68.21875 46.18359375 C68.93898147 48.54955414 69.54857772 50.90810843 70.125 53.3125 C70.785 55.6225 71.445 57.9325 72.125 60.3125 C72.125 66.5825 72.125 72.8525 72.125 79.3125 C24.605 79.3125 -22.915 79.3125 -71.875 79.3125 C-71.875 55.70122116 -67.64190333 37.30344979 -50.75 20.06640625 C-36.25921246 6.18596439 -19.83558158 -0.05732827 0 0 Z " fill="#FFA0AB" transform="translate(255.875,175.6875)"/>
<path d="M0 0 C26.54190009 -0.77140076 48.06866964 5.45324849 67.84545898 23.93237305 C71.50673202 27.43564924 74.91874346 30.9772484 78 35 C78 35.66 78 36.32 78 37 C79.485 37.495 79.485 37.495 81 38 C96.98714428 60.66833891 101.96283277 90.37889771 97.49658203 117.45019531 C95.81691015 126.0748232 93.40143537 134.55318264 91 143 C74.42727748 137.61460902 59.20246491 128.3038526 46 117 C45.45649902 116.53480957 44.91299805 116.06961914 44.35302734 115.59033203 C19.72199941 94.22821479 1.50191714 64.05783457 -1 31 C-1.13622117 26.60318317 -1.13978524 22.21110802 -1.125 17.8125 C-1.12886719 16.65041016 -1.13273437 15.48832031 -1.13671875 14.29101562 C-1.13542969 13.17017578 -1.13414062 12.04933594 -1.1328125 10.89453125 C-1.13112061 9.37629761 -1.13112061 9.37629761 -1.12939453 7.82739258 C-1.0052721 5.1152004 -0.60931189 2.64146085 0 0 Z " fill="#FECD71" transform="translate(379,93)"/>
<path d="M0 0 C2.40625 2.7265625 2.40625 2.7265625 4 5 C3.18595703 6.34578125 3.18595703 6.34578125 2.35546875 7.71875 C-9.09733373 27.37726152 -8.92223169 47.45037011 -3.45751953 69.00878906 C-2.77312747 71.98739185 -2.37795756 74.96838256 -2 78 C-3.0209375 78.185625 -3.0209375 78.185625 -4.0625 78.375 C-14.28653688 80.550327 -24.09791668 84.9354376 -32.72265625 90.875 C-35 92 -35 92 -36.984375 91.4375 C-52.96442631 80.04087426 -64.85995837 64.91252362 -68.6015625 45.28125 C-70.52333372 29.45489875 -68.26789735 14.10202426 -58.3125 1.25 C-42.41757334 -15.989882 -17.87353044 -11.28612103 0 0 Z " fill="#72DA8C" transform="translate(371,17)"/>
<path d="M0 0 C8.13317875 5.87470928 13.0943451 12.72130542 15.48828125 22.45703125 C15.89999449 25.72075809 15.96610377 28.92010573 15.92578125 32.20703125 C15.91820801 33.08029053 15.91063477 33.9535498 15.90283203 34.85327148 C15.71640097 42.22954563 14.43624874 48.6554511 11.48828125 55.45703125 C11.08738281 56.38515625 10.68648438 57.31328125 10.2734375 58.26953125 C2.1573957 74.83096148 -13.37976901 86.33090061 -30.51171875 92.45703125 C-31.30320312 92.74449219 -32.0946875 93.03195313 -32.91015625 93.328125 C-35.46433763 93.96013234 -36.96739699 94.15565763 -39.51171875 93.45703125 C-41.82357756 91.28879493 -43.52027903 88.95472104 -45.34375 86.36328125 C-50.70788892 79.17243556 -58.07878633 73.41231953 -65.51171875 68.45703125 C-65.15980469 67.93496094 -64.80789063 67.41289063 -64.4453125 66.875 C-63.38978302 65.30135161 -62.33948942 63.72418509 -61.29296875 62.14453125 C-60.11504529 60.3673134 -58.92766654 58.59632272 -57.73046875 56.83203125 C-49.20149841 43.96376021 -44.28918647 30.56005597 -44.38671875 15.08203125 C-44.38961914 13.96646851 -44.38961914 13.96646851 -44.39257812 12.82836914 C-44.4333796 7.64148212 -44.76431198 2.59545281 -45.51171875 -2.54296875 C-31.43527804 -7.96691838 -13.0202093 -7.99841785 0 0 Z " fill="#73DA8C" transform="translate(496.51171875,36.54296875)"/>
<path d="M0 0 C3.375 1 3.375 1 5.375 2.5625 C7.68611524 8.1958434 5.31322215 13.32756345 3.125 18.625 C0.64870857 24.7581404 -0.93022288 30.92472105 -2.375 37.375 C-2.58543945 38.31424316 -2.79587891 39.25348633 -3.01269531 40.22119141 C-4.08193392 45.13076409 -5.01476218 50.00871516 -5.625 55 C-5.71845703 55.66902344 -5.81191406 56.33804688 -5.90820312 57.02734375 C-7.2810756 68.04983065 -5.99094003 75.14040593 0.875 84.0625 C2.61099481 86.21497989 4.36113902 88.34066102 6.18164062 90.42211914 C7.375 92 7.375 92 7.375 94 C8.035 94 8.695 94 9.375 94 C9.3234375 92.88367188 9.271875 91.76734375 9.21875 90.6171875 C9.22770262 85.5209063 10.43835481 80.98738684 11.875 76.125 C12.14199707 75.21097412 12.40899414 74.29694824 12.68408203 73.35522461 C23.28340932 38.39439378 23.28340932 38.39439378 34.375 31 C37.70966685 31.17864287 40.3610269 31.44395023 43.3125 33.0625 C45.03769608 36.2084458 44.7933562 39.52719801 44.375 43 C42.90625 46.10546875 42.90625 46.10546875 40.875 49.1875 C30.67934677 65.62468616 25.46826647 84.91822351 23.375 104 C23.24222656 104.97195312 23.10945313 105.94390625 22.97265625 106.9453125 C22.37083924 114.35716404 25.03359568 118.28106929 29.625 123.98046875 C30.49125 124.98013672 30.49125 124.98013672 31.375 126 C27.93751853 127.15116096 27.48249109 127.04817731 23.90625 125.4453125 C22.55362095 124.68751024 21.21028026 123.9129697 19.875 123.125 C19.16230957 122.7122583 18.44961914 122.2995166 17.71533203 121.87426758 C11.2267854 118.04475851 5.2213354 113.75491769 -0.625 109 C-1.17897461 108.55285645 -1.73294922 108.10571289 -2.30371094 107.64501953 C-29.10401269 85.87444535 -45.92896536 58.68196945 -56.625 26 C-56.85977051 25.28344238 -57.09454102 24.56688477 -57.33642578 23.82861328 C-59.66088394 16.59121746 -61.2745292 9.60521642 -61.625 2 C-56.48365141 2.68841786 -54.89329338 4.3712886 -51.69140625 8.2578125 C-48.16787775 12.93364805 -44.88600827 17.76905548 -41.60546875 22.6171875 C-38.54351161 27.1393059 -35.4053174 31.60519072 -32.25 36.0625 C-31.76249268 36.75206787 -31.27498535 37.44163574 -30.77270508 38.15209961 C-27.73562762 42.44345197 -24.68338966 46.72381518 -21.625 51 C-21.46644531 50.06542969 -21.30789062 49.13085938 -21.14453125 48.16796875 C-14.36177651 9.46930622 -14.36177651 9.46930622 -6.1953125 1.68359375 C-3.625 0 -3.625 0 0 0 Z " fill="#FDF7E5" transform="translate(150.625,42)"/>
<path d="M0 0 C0.07516846 0.57331055 0.15033691 1.14662109 0.2277832 1.73730469 C2.11553899 16.38385601 2.11553899 16.38385601 5.546875 30.72265625 C6.05633224 33.28311808 6.07177798 34.61770677 5 37 C3.28515625 38.203125 3.28515625 38.203125 1.0625 39.25 C-14.93128817 47.57692464 -25.79560308 61.82903514 -32.375 78.375 C-35.38490675 88.09726516 -35.3307249 98.96087353 -36 109 C-47.88 109 -59.76 109 -72 109 C-72.68346114 87.81270476 -70.13685283 69.76628574 -60 51 C-59.443125 49.94425781 -58.88625 48.88851562 -58.3125 47.80078125 C-46.04974441 25.63130876 -27.48391612 11.50163399 -5 1 C-3 0 -3 0 0 0 Z " fill="#FC5C6F" transform="translate(220,146)"/>
<path d="M0 0 C0.25652344 0.74121094 0.51304687 1.48242188 0.77734375 2.24609375 C6.17485041 17.09378043 13.1315542 31.65787131 24.7578125 42.6640625 C26 44 26 44 26 46 C26.58136719 46.25652344 27.16273438 46.51304687 27.76171875 46.77734375 C30.20406142 48.11146811 31.82365447 49.62072773 33.8125 51.5625 C44.59610804 61.27302469 57.57972809 66.89142648 71 72 C71 72.33 71 72.66 71 73 C33.38 73 -4.24 73 -43 73 C-43 49.36869579 -38.74960325 31.05734039 -21.91015625 13.76953125 C-16.69372443 8.65858845 -7.71909966 0 0 0 Z " fill="#FE8A98" transform="translate(227,182)"/>
<path d="M0 0 C1.7644043 -0.01740234 1.7644043 -0.01740234 3.56445312 -0.03515625 C11.69952576 -0.00787261 19.18588212 0.66181845 25.9375 5.5625 C30.13186259 10.05645991 31.67490901 14.57131824 31.9375 20.6875 C31.47963648 32.23362347 26.87675685 41.98242989 18.48828125 49.83203125 C11.89640498 55.11355483 5.35438231 56.08050508 -2.9921875 55.828125 C-10.61874213 54.82508607 -16.47887723 51.20867384 -21.4375 45.375 C-22.118125 44.653125 -22.79875 43.93125 -23.5 43.1875 C-29.51075164 34.46221536 -31.34241689 24.79411255 -30.4375 14.375 C-28.88337543 9.46768274 -25.74079708 6.11346178 -21.4375 3.375 C-14.29735075 -0.02347666 -7.82797883 -0.07695446 0 0 Z " fill="#666768" transform="translate(255.4375,360.625)"/>
<path d="M0 0 C0.474375 0.495 0.94875 0.99 1.4375 1.5 C3.4259437 3.40890595 4.3541338 3.25910927 7.0625 3.3125 C11.00442887 3.4282022 11.00442887 3.4282022 13 1 C20.14818318 1.33247364 25.12977088 4.79394745 29.8125 9.875 C34.26376235 15.30434242 35.61213787 20.37002673 35.43359375 27.34375 C34.47149084 33.23771375 31.33333251 37.92447014 26.9140625 41.85546875 C24.67574734 43.44585057 22.44658965 44.7561801 20 46 C19.33484375 46.33902344 18.6696875 46.67804688 17.984375 47.02734375 C9.60695895 50.49661719 -1.92606309 50.49230204 -10.4375 47.5 C-17.60473693 44.06746157 -24.26178273 38.56790058 -27.40625 31.12890625 C-29.09230346 25.08351721 -28.78670938 19.86350854 -25.9375 14.25 C-20.43237127 5.50656025 -10.7366477 -1.50313068 0 0 Z " fill="#FDFEFE" transform="translate(167,369)"/>
<path d="M0 0 C6.59507684 0.26769685 12.62874378 3.96441998 17.4296875 8.30859375 C21.90361238 13.30558944 25.1724627 18.39708034 24.83984375 25.35546875 C23.68024286 32.88621015 20.69000634 38.36448563 14.72265625 43.09375 C5.22766179 49.36812244 -4.3303792 50.50889152 -15.5 49.5625 C-25.33940731 47.12260062 -31.64140773 41.86806437 -37.5 33.8125 C-39.26077612 28.08997761 -39.74179688 21.96019424 -37.65625 16.25390625 C-34.05395295 10.01073603 -28.1538941 4.40836102 -21.5 1.5625 C-18.875 1.3125 -18.875 1.3125 -16.5 1.5625 C-15.84 2.2225 -15.18 2.8825 -14.5 3.5625 C-11.64457214 3.78912126 -9.29382198 3.96327696 -6.5 3.5625 C-6.005 3.0675 -5.51 2.5725 -5 2.0625 C-3.5 0.5625 -3.5 0.5625 0 0 Z " fill="#FEFEFE" transform="translate(348.5,368.4375)"/>
<path d="M0 0 C6.38237311 1.08362535 12.76459792 2.16812109 19.14672852 3.25317383 C21.31010729 3.6208792 23.47351783 3.98839772 25.63696289 4.35571289 C30.82892689 5.23727639 36.02028564 6.12205449 41.21044922 7.01416016 C44.85479417 7.63944012 48.50122784 8.24437581 52.15283203 8.82568359 C52.93199478 8.95335617 53.71115753 9.08102875 54.51393127 9.21257019 C56.5603821 9.54764857 58.6083812 9.87323366 60.65649414 10.19799805 C63.99801344 10.99952349 66.23413766 11.98447353 69 14 C70.40457737 16.80915474 70.24895157 18.88810534 70 22 C68.9375 24.3125 68.9375 24.3125 67 26 C61.05116972 27.37433805 55.8960193 26.64841312 49.9296875 25.62890625 C48.97160187 25.46889633 48.01351624 25.30888641 47.02639771 25.14402771 C45.00323692 24.80092657 42.98109552 24.45176599 40.95996094 24.09692383 C37.90954089 23.5684837 34.85433233 23.08151118 31.796875 22.59570312 C20.14076917 20.63317729 11.52364371 18.0926035 2 11 C0.34425799 9.98201367 -1.31909662 8.97587992 -3 8 C-1.125 2.25 -1.125 2.25 0 0 Z " fill="#FFCD70" transform="translate(304,141)"/>
<path d="M0 0 C4.86847236 3.49186983 8.76759122 8.78266825 10.265625 14.625 C10.69905764 18.67037127 10.62433577 20.92252475 8.765625 24.5625 C5.73342117 27.06406816 4.01405342 27.37024508 0.1640625 27.10546875 C-1.734375 26.625 -1.734375 26.625 -4.109375 24.5625 C-5.90157059 21.32276181 -6.77492677 18.18866485 -7.734375 14.625 C-10.53307527 13.22564987 -12.63936292 13.37234595 -15.734375 13.625 C-18.59199451 15.35998327 -18.80206046 16.86189913 -19.734375 20.125 C-21.17755682 25.17613636 -21.17755682 25.17613636 -23.734375 26.625 C-26.8283982 27.01789183 -28.77899265 27.24937655 -31.734375 26.625 C-34.84790631 24.05633667 -35.59863892 22.39417113 -36.296875 18.4375 C-35.25176042 11.35394564 -32.45639066 5.55739471 -26.734375 1.125 C-17.84387391 -4.72488362 -9.44704025 -5.22855058 0 0 Z " fill="#67696A" transform="translate(201.734375,346.375)"/>
<path d="M0 0 C4.19893204 3.02814548 6.97294479 7.04354584 9.26953125 11.63671875 C9.41733087 13.61211755 9.49072091 15.59350799 9.51953125 17.57421875 C9.5453125 18.63511719 9.57109375 19.69601562 9.59765625 20.7890625 C9.26953125 23.63671875 9.26953125 23.63671875 8 25.484375 C5.52146737 27.13486513 3.1213909 27.17003118 0.203125 27.046875 C-1.73046875 26.63671875 -1.73046875 26.63671875 -4.10546875 24.57421875 C-5.89766434 21.33448056 -6.77102052 18.2003836 -7.73046875 14.63671875 C-10.7437107 13.13009778 -13.41333252 13.45901502 -16.73046875 13.63671875 C-18.93338479 15.83963479 -19.09147483 16.62586413 -19.66796875 19.57421875 C-20.21943428 21.85886165 -20.69885029 23.58050816 -21.85546875 25.63671875 C-25.05340281 27.34228358 -28.26674171 27.36849207 -31.73046875 26.63671875 C-34.84400006 24.06805542 -35.59473267 22.40588988 -36.29296875 18.44921875 C-35.24785417 11.36566439 -32.45248441 5.56911346 -26.73046875 1.13671875 C-17.8328381 -4.71785606 -9.46167311 -5.20019514 0 0 Z " fill="#67686A" transform="translate(335.73046875,346.36328125)"/>
<path d="M0 0 C9.56496868 1.29868266 19.04867512 3.21779472 28.51708984 5.07763672 C30.66366925 5.48552926 32.81538111 5.86724929 34.97119141 6.22314453 C35.96940918 6.3879834 36.96762695 6.55282227 37.99609375 6.72265625 C38.88530518 6.86195557 39.7745166 7.00125488 40.69067383 7.14477539 C41.69843872 7.41342407 41.69843872 7.41342407 42.7265625 7.6875 C44.25291173 10.74019846 43.56450694 13.44595689 43.2890625 16.8125 C43.18722656 18.09382813 43.08539063 19.37515625 42.98046875 20.6953125 C42.89667969 21.68273437 42.81289063 22.67015625 42.7265625 23.6875 C41.51262817 23.48386841 41.51262817 23.48386841 40.27416992 23.27612305 C37.17891907 22.75735734 34.0835115 22.2395369 30.98803711 21.72210693 C28.9183028 21.37570967 26.84879821 21.02796189 24.77929688 20.68017578 C18.76433978 19.67222809 12.75018995 18.67305815 6.71484375 17.79296875 C5.85673096 17.66639893 4.99861816 17.5398291 4.11450195 17.40942383 C2.57392687 17.18560651 1.03212823 16.96998453 -0.51098633 16.7644043 C-4.92567333 16.11874528 -8.44160779 14.98893431 -12.2734375 12.6875 C-13.81930626 9.59576248 -13.56703271 7.09320448 -13.2734375 3.6875 C-9.35748013 -1.51852744 -6.0269924 -0.60904344 0 0 Z " fill="#FCE29F" transform="translate(434.2734375,178.3125)"/>
<path d="M0 0 C8.00621762 0.55318899 15.84538391 1.49771497 23.75 2.875 C24.78552002 3.05426025 25.82104004 3.23352051 26.88793945 3.41821289 C28.95964203 3.77804084 31.03102289 4.13972687 33.10205078 4.50341797 C35.70910074 4.95015256 38.31807589 5.36046915 40.93359375 5.75390625 C42.35161326 5.98145475 43.769586 6.20929496 45.1875 6.4375 C46.39792969 6.62183594 47.60835938 6.80617187 48.85546875 6.99609375 C52.71192573 8.2272856 54.45965642 9.88678782 57 13 C57.625 16 57.625 16 57 19 C55.0625 21.9375 55.0625 21.9375 52 24 C48.92698871 23.8030121 46.03241935 23.47535832 43 23 C42.09080811 22.86231201 41.18161621 22.72462402 40.24487305 22.58276367 C34.104071 21.62389744 27.98230214 20.55507893 21.86035156 19.48339844 C19.38679885 19.06536887 16.91423881 18.6961683 14.4296875 18.3515625 C5.76869182 16.95929388 5.76869182 16.95929388 3.56640625 14.2109375 C2.74815652 12.12028987 2.3421477 10.21313256 2 8 C1.608125 7.071875 1.21625 6.14375 0.8125 5.1875 C0 3 0 3 0 0 Z " fill="#FFCD70" transform="translate(355,202)"/>
<path d="M0 0 C3.5 0.5 3.5 0.5 5.9375 2.0625 C8.13744865 5.49441989 7.94741638 7.45272886 7.5 11.5 C6.05811578 14.42176038 4.19760847 16.95825509 2.25 19.5625 C1.26542558 20.92824168 0.28104745 22.29412488 -0.703125 23.66015625 C-1.18507324 24.30960205 -1.66702148 24.95904785 -2.16357422 25.62817383 C-3.67950656 27.69370706 -3.67950656 27.69370706 -5.4609375 30.828125 C-7.9835005 34.13355238 -9.96157366 34.88758566 -13.875 36.1875 C-17.31660751 37.36022574 -20.53336421 38.5166821 -23.7890625 40.14453125 C-26.5 41.5 -26.5 41.5 -28.5 41.5 C-27.11237236 36.95741798 -25.29601394 32.80417511 -23.0625 28.625 C-22.55058105 27.66630005 -22.55058105 27.66630005 -22.02832031 26.68823242 C-19.20801848 21.54036971 -16.06860241 16.65182645 -12.75 11.8125 C-12.29052979 11.1417041 -11.83105957 10.4709082 -11.35766602 9.77978516 C-5.01056345 0.71579478 -5.01056345 0.71579478 0 0 Z " fill="#FCF7E4" transform="translate(230.5,111.5)"/>
<path d="M0 0 C1.9375 1.125 1.9375 1.125 3 3 C3.52720749 7.06702918 3.47484425 9.22617975 1.3125 12.75 C-1.75673404 15.73628177 -4.28868995 17.61495524 -8.5 18.5625 C-12.4807778 17.66682499 -13.81561942 15.30777631 -16 12 C-16.75 9.5625 -16.75 9.5625 -16 7 C-10.97501545 0.89451359 -8.04549769 -1.69378899 0 0 Z " fill="#FFF4E3" transform="translate(292,214)"/>
<path d="M0 0 C4.81802146 1.57831737 7.87502991 3.90128118 10.625 8.1875 C10.875 11.875 10.875 11.875 9.625 15.1875 C7.26252335 17.74684971 5.61160783 18.92786636 2.25 19.8125 C-1.82777478 18.84160124 -4.50678918 16.16365423 -7.375 13.1875 C-8.93930248 10.05889505 -8.73127284 7.63147075 -8.375 4.1875 C-5.68508309 0.92699466 -4.22172686 0.23454038 0 0 Z " fill="#FFECCC" transform="translate(225.375,212.8125)"/>
<path d="M0 0 C1.90625 0.47265625 1.90625 0.47265625 4.40625 2.41015625 C6.43454116 6.55125071 6.71025527 9.94397349 5.90625 14.47265625 C3.96891033 18.04928334 2.78464683 19.15493825 -1.03125 20.53515625 C-4.98875721 20.4543908 -6.3396962 19.22671005 -9.09375 16.47265625 C-10.83095468 12.99824689 -10.54564717 9.2712122 -10.09375 5.47265625 C-7.72543307 0.63734253 -5.14526519 -0.37437564 0 0 Z " fill="#FFF4E3" transform="translate(258.09375,198.52734375)"/>
</svg>
